              <svg width="62" height="64" viewBox="0 0 62 64" fill="none" xmlns="http://www.w3.org/2000/svg">
                <g clip-path="url(#clip0)">
                  <path
                    d="M57.7855 22.4468V61.9819C57.7842 62.2657 57.6707 62.5376 57.4699 62.7382C57.2691 62.9388 56.9971 63.0519 56.7132 63.0529H5.2855C5.00176 63.0519 4.72993 62.9387 4.52929 62.7381C4.32866 62.5374 4.2155 62.2656 4.21451 61.9819V1.98243C4.2155 1.69869 4.32866 1.42686 4.52929 1.22622C4.72993 1.02559 5.00176 0.912431 5.2855 0.911438H56.7132C56.9972 0.9121 57.2694 1.02511 57.4703 1.22578C57.6712 1.42645 57.7845 1.69847 57.7855 1.98243V5.52939"
                    fill="#31489A"
                  />
                  <path
                    d="M49.2138 0.375302C49.0716 0.375302 48.9352 0.431787 48.8347 0.53233C48.7342 0.632872 48.6777 0.769238 48.6777 0.911427V17.5137H13.3211V0.911427C13.3246 0.838923 13.3134 0.766461 13.288 0.698434C13.2627 0.630407 13.2238 0.568231 13.1738 0.515676C13.1237 0.463121 13.0635 0.421282 12.9967 0.392694C12.93 0.364106 12.8582 0.349365 12.7856 0.349365C12.713 0.349365 12.6412 0.364106 12.5745 0.392694C12.5077 0.421282 12.4475 0.463121 12.3974 0.515676C12.3474 0.568231 12.3085 0.630407 12.2832 0.698434C12.2578 0.766461 12.2466 0.838923 12.2501 0.911427V63.0529C12.2466 63.1254 12.2578 63.1978 12.2832 63.2658C12.3085 63.3339 12.3474 63.396 12.3974 63.4486C12.4475 63.5012 12.5077 63.543 12.5745 63.5716C12.6412 63.6002 12.713 63.6149 12.7856 63.6149C12.8582 63.6149 12.93 63.6002 12.9967 63.5716C13.0635 63.543 13.1237 63.5012 13.1738 63.4486C13.2238 63.396 13.2627 63.3339 13.288 63.2658C13.3134 63.1978 13.3246 63.1254 13.3211 63.0529V48.5888H48.6777V63.0529C48.6777 63.195 48.7342 63.3314 48.8347 63.432C48.9352 63.5325 49.0716 63.589 49.2138 63.589C49.356 63.589 49.4923 63.5325 49.5929 63.432C49.6934 63.3314 49.7499 63.195 49.7499 63.0529V0.911427C49.7499 0.841022 49.736 0.771306 49.7091 0.706261C49.6822 0.641215 49.6427 0.582113 49.5929 0.53233C49.5431 0.482546 49.484 0.443055 49.419 0.416113C49.3539 0.38917 49.2842 0.375302 49.2138 0.375302ZM13.3211 18.5897H30.4645V47.5216H13.3211V18.5897ZM31.5355 47.5216V18.5897H48.6777V47.5216H31.5355Z"
                    fill="#A2AFDB"
                    stroke="#A2AFDB"
                    stroke-miterlimit="10"
                  />
                  <path
                    d="M59.9275 34.1247H2.06751C1.78347 34.1247 1.51106 34.0119 1.31021 33.811C1.10936 33.6102 0.996521 33.3378 0.996521 33.0537C0.996521 32.7697 1.10936 32.4973 1.31021 32.2964C1.51106 32.0956 1.78347 31.9827 2.06751 31.9827H59.9237C60.2078 31.9827 60.4802 32.0956 60.681 32.2964C60.8819 32.4973 60.9947 32.7697 60.9947 33.0537C60.9947 33.3378 60.8819 33.6102 60.681 33.811C60.4802 34.0119 60.2078 34.1247 59.9237 34.1247H59.9275Z"
                    fill="#A2AFDB"
                    stroke="#A2AFDB"
                    stroke-miterlimit="10"
                  />
                </g>
                <defs>
                  <clipPath id="clip0">
                    <rect width="60.125" height="63.3392" fill="white" transform="translate(0.9375 0.3125)" />
                  </clipPath>
                </defs>
              </svg>