<svg width="62" height="31" viewBox="0 0 62 31" fill="none" xmlns="http://www.w3.org/2000/svg">
<g clip-path="url(#clip0)">
<path d="M20.1789 9.92773H41.8211V20.5937H20.1789V9.92773Z" fill="#31489A"/>
<path d="M57.919 7.02582H56.4172V22.7503H57.919C58.7524 22.7492 59.5513 22.4177 60.1406 21.8284C60.7299 21.2391 61.0614 20.4401 61.0625 19.6068V10.1693C61.0614 9.33596 60.7299 8.53703 60.1406 7.94774C59.5513 7.35845 58.7524 7.02691 57.919 7.02582Z" fill="#31489A"/>
<path d="M50.5296 0.375H44.5665V30.1465H50.5296C51.3624 30.1454 52.1608 29.8142 52.7498 29.2255C53.3388 28.6367 53.6703 27.8385 53.6718 27.0057V3.51852C53.671 2.68527 53.3398 1.88633 52.7507 1.297C52.1617 0.707676 51.3629 0.37609 50.5296 0.375V0.375Z" fill="#31489A"/>
<path d="M8.32819 3.51852V27.0057C8.32891 27.839 8.66015 28.6379 9.24922 29.2272C9.83829 29.8166 10.6371 30.1481 11.4703 30.1492H17.4334V0.375H11.4703C10.6371 0.37609 9.83829 0.707676 9.24922 1.297C8.66015 1.88633 8.32891 2.68527 8.32819 3.51852Z" fill="#31489A"/>
<path d="M0.9375 10.1693V19.6123C0.940041 20.4447 1.27222 21.2422 1.86135 21.8303C2.45049 22.4184 3.24859 22.7492 4.08102 22.7503H5.58277V7.02582H4.08102C3.24764 7.02691 2.44871 7.35845 1.85942 7.94774C1.27013 8.53703 0.93859 9.33596 0.9375 10.1693H0.9375Z" fill="#31489A"/>
</g>
<defs>
<clipPath id="clip0">
<rect width="60.125" height="29.7715" fill="white" transform="translate(0.9375 0.375)"/>
</clipPath>
</defs>
</svg>
