<svg width="61" height="33" viewBox="0 0 61 33" fill="none" xmlns="http://www.w3.org/2000/svg">
<path d="M35.5024 32.004C37.3093 32.0067 39.0764 31.4733 40.5803 30.4711C42.0842 29.4688 43.2572 28.0429 43.951 26.3737C44.6448 24.7044 44.8282 22.8668 44.4781 21.0932C44.128 19.3196 43.26 17.6898 41.9839 16.4098C40.7079 15.1298 39.0811 14.2572 37.3094 13.9023C35.5376 13.5474 33.7004 13.7262 32.0302 14.4161C30.36 15.1059 28.9318 16.2759 27.9263 17.7779C26.9207 19.2799 26.3829 21.0466 26.381 22.8544C26.3805 25.2771 27.3405 27.6011 29.0506 29.3164C30.7606 31.0317 33.0809 31.9983 35.5024 32.004Z" fill="#31489A"/>
<path d="M60.125 0H33.7323C37.7426 2.31725 41.0732 5.64919 43.3897 9.66138C45.7061 13.6736 46.927 18.2248 46.9296 22.8583L60.125 0Z" fill="#31489A"/>
<path d="M33.7343 0H7.34151C11.358 2.31022 14.6936 5.6406 17.011 9.65437C19.3284 13.6681 20.5454 18.223 20.5389 22.8583L33.7343 0Z" fill="#31489A"/>
<path d="M9.12142 32.004C10.9284 32.0067 12.6956 31.4732 14.1995 30.4709C15.7034 29.4686 16.8764 28.0426 17.5702 26.3732C18.2639 24.7039 18.4473 22.8661 18.097 21.0925C17.7467 19.3189 16.8785 17.689 15.6023 16.4091C14.326 15.1292 12.6991 14.2567 10.9272 13.9021C9.1553 13.5474 7.31808 13.7265 5.64792 14.4166C3.97776 15.1068 2.5497 16.277 1.54437 17.7793C0.539041 19.2816 0.00160891 21.0485 5.41243e-05 22.8564C-0.0040819 24.057 0.228868 25.2466 0.685529 26.3569C1.14219 27.4672 1.81356 28.4763 2.6611 29.3263C3.50864 30.1763 4.51565 30.8504 5.6243 31.3099C6.73295 31.7694 7.9214 32.0053 9.12142 32.004Z" fill="#31489A"/>
</svg>
